#tb 0: 1/25
#media_type 0: video
#codec_id 0: rawvideo
#dimensions 0: 352x288
#sar 0: 0/1
0,          0,          0,        1,   152064, 0xf772f152
0,          1,          1,        1,   152064, 0xc416d300
0,          2,          2,        1,   152064, 0xc2275c94
0,          3,          3,        1,   152064, 0x1bd35645
0,          4,          4,        1,   152064, 0x60327bf5
0,          5,          5,        1,   152064, 0x7f5541bd
0,          6,          6,        1,   152064, 0x52e5ebad
0,          7,          7,        1,   152064, 0xb8e5c1f3
0,          8,          8,        1,   152064, 0x2b4e3653
0,          9,          9,        1,   152064, 0x9a8f8499
0,         10,         10,        1,   152064, 0x32d4e9fb
0,         11,         11,        1,   152064, 0x0bc73d7a
0,         12,         12,        1,   152064, 0xb58a8b87
0,         13,         13,        1,   152064, 0xddbc5468
0,         14,         14,        1,   152064, 0xcfa30b64
0,         15,         15,        1,   152064, 0xad411f36
0,         16,         16,        1,   152064, 0x2f8c4d9b
0,         17,         17,        1,   152064, 0xc8523359
0,         18,         18,        1,   152064, 0x86be9861
0,         19,         19,        1,   152064, 0x7518d731
0,         20,         20,        1,   152064, 0x425fbfab
0,         21,         21,        1,   152064, 0x4f00250d
0,         22,         22,        1,   152064, 0x12b40617
0,         23,         23,        1,   152064, 0x65ff925d
0,         24,         24,        1,   152064, 0xc76a94c9
0,         25,         25,        1,   152064, 0x640170d5
0,         26,         26,        1,   152064, 0xd338a090
0,         27,         27,        1,   152064, 0xce715174
0,         28,         28,        1,   152064, 0x7bded195
0,         29,         29,        1,   152064, 0x09e7d3b9
0,         30,         30,        1,   152064, 0x651e1518
0,         31,         31,        1,   152064, 0x03cadc5f
0,         32,         32,        1,   152064, 0x08906919
0,         33,         33,        1,   152064, 0x3303ebe0
0,         34,         34,        1,   152064, 0xa28676c5
0,         35,         35,        1,   152064, 0x3900ecaf
0,         36,         36,        1,   152064, 0xeb795a05
0,         37,         37,        1,   152064, 0x870034df
0,         38,         38,        1,   152064, 0x69b0527a
0,         39,         39,        1,   152064, 0xb2b314f9
0,         40,         40,        1,   152064, 0x1a44ea1a
0,         41,         41,        1,   152064, 0xe6eaec87
0,         42,         42,        1,   152064, 0xd9ad818e
0,         43,         43,        1,   152064, 0x9c7ff76e
0,         44,         44,        1,   152064, 0x74c45abb
0,         45,         45,        1,   152064, 0x2f4fa5c6
0,         46,         46,        1,   152064, 0x19620702
0,         47,         47,        1,   152064, 0xfc9601f3
0,         48,         48,        1,   152064, 0x33e0d8e7
0,         49,         49,        1,   152064, 0xdf7f2a80
